<svg xmlns="http://www.w3.org/2000/svg" xmlns:xlink="http://www.w3.org/1999/xlink" width="500" zoomAndPan="magnify" viewBox="0 0 375 374.999991" height="500" preserveAspectRatio="xMidYMid meet" version="1.0"><defs><clipPath id="ed6b6be138"><path d="M 82.355469 120.152344 L 261 120.152344 L 261 180.902344 L 82.355469 180.902344 Z M 82.355469 120.152344 " clip-rule="nonzero"/></clipPath><clipPath id="f6984f6a2c"><path d="M 189 121 L 292.355469 121 L 292.355469 180 L 189 180 Z M 189 121 " clip-rule="nonzero"/></clipPath></defs><rect x="-37.5" width="450" fill="#ffffff" y="-37.499999" height="449.999989" fill-opacity="1"/><rect x="-37.5" width="450" fill="#063a80" y="-37.499999" height="449.999989" fill-opacity="1"/><g clip-path="url(#ed6b6be138)"><path fill="#ffffff" d="M 85.554688 179.976562 L 171.324219 124.488281 C 171.324219 124.488281 257.09375 179.976562 257.09375 179.976562 C 257.980469 180.550781 259.167969 180.296875 259.742188 179.40625 C 260.316406 178.519531 260.0625 177.332031 259.171875 176.757812 C 259.171875 176.757812 172.367188 120.597656 172.367188 120.597656 C 171.730469 120.1875 170.917969 120.1875 170.285156 120.597656 C 170.285156 120.597656 83.476562 176.757812 83.476562 176.757812 C 82.585938 177.332031 82.332031 178.519531 82.90625 179.40625 C 83.480469 180.296875 84.667969 180.550781 85.554688 179.976562 Z M 85.554688 179.976562 " fill-opacity="1" fill-rule="evenodd"/></g><g clip-path="url(#f6984f6a2c)"><path fill="#ffffff" d="M 192.53125 135.835938 L 208.304688 125.625 C 208.304688 125.625 289.394531 178.824219 289.394531 178.824219 C 290.277344 179.402344 291.46875 179.15625 292.046875 178.273438 C 292.625 177.386719 292.378906 176.199219 291.496094 175.621094 C 291.496094 175.621094 209.363281 121.738281 209.363281 121.738281 C 208.730469 121.324219 207.910156 121.320312 207.273438 121.730469 C 207.273438 121.730469 200.289062 126.25 190.449219 132.617188 C 189.558594 133.191406 189.304688 134.378906 189.878906 135.265625 C 190.453125 136.152344 191.640625 136.410156 192.53125 135.835938 Z M 192.53125 135.835938 " fill-opacity="1" fill-rule="evenodd"/></g><path fill="#ffffff" d="M 132.144531 148.117188 L 132.144531 133.644531 C 132.144531 132.59375 131.285156 131.738281 130.234375 131.738281 L 114.273438 131.738281 C 113.214844 131.738281 112.363281 132.59375 112.363281 133.644531 L 112.363281 159.113281 C 112.363281 160.167969 113.214844 161.023438 114.273438 161.023438 C 115.328125 161.023438 116.183594 160.167969 116.183594 159.113281 L 116.183594 135.554688 C 116.183594 135.554688 128.324219 135.554688 128.324219 135.554688 L 128.324219 148.117188 C 128.324219 149.167969 129.179688 150.023438 130.234375 150.023438 C 131.285156 150.023438 132.144531 149.167969 132.144531 148.117188 Z M 132.144531 148.117188 " fill-opacity="1" fill-rule="evenodd"/></svg>