<svg xmlns="http://www.w3.org/2000/svg" xmlns:xlink="http://www.w3.org/1999/xlink" width="500" zoomAndPan="magnify" viewBox="0 0 375 374.999991" height="500" preserveAspectRatio="xMidYMid meet" version="1.0"><defs><g/><clipPath id="b64875b0b4"><path d="M 82.355469 120.152344 L 261 120.152344 L 261 180.902344 L 82.355469 180.902344 Z M 82.355469 120.152344 " clip-rule="nonzero"/></clipPath><clipPath id="97fb34bb2c"><path d="M 189 121 L 292.355469 121 L 292.355469 180 L 189 180 Z M 189 121 " clip-rule="nonzero"/></clipPath></defs><rect x="-37.5" width="450" fill="#ffffff" y="-37.499999" height="449.999989" fill-opacity="1"/><rect x="-37.5" width="450" fill="#ffffff" y="-37.499999" height="449.999989" fill-opacity="1"/><g clip-path="url(#b64875b0b4)"><path fill="#063a80" d="M 85.554688 179.976562 L 171.324219 124.488281 C 171.324219 124.488281 257.09375 179.976562 257.09375 179.976562 C 257.980469 180.550781 259.167969 180.296875 259.742188 179.40625 C 260.316406 178.519531 260.0625 177.332031 259.171875 176.757812 C 259.171875 176.757812 172.367188 120.597656 172.367188 120.597656 C 171.730469 120.1875 170.917969 120.1875 170.285156 120.597656 C 170.285156 120.597656 83.476562 176.757812 83.476562 176.757812 C 82.585938 177.332031 82.332031 178.519531 82.90625 179.40625 C 83.480469 180.296875 84.667969 180.550781 85.554688 179.976562 Z M 85.554688 179.976562 " fill-opacity="1" fill-rule="evenodd"/></g><g clip-path="url(#97fb34bb2c)"><path fill="#063a80" d="M 192.53125 135.835938 L 208.304688 125.625 C 208.304688 125.625 289.394531 178.824219 289.394531 178.824219 C 290.277344 179.402344 291.46875 179.15625 292.046875 178.273438 C 292.625 177.386719 292.378906 176.199219 291.496094 175.621094 C 291.496094 175.621094 209.363281 121.738281 209.363281 121.738281 C 208.730469 121.324219 207.910156 121.320312 207.273438 121.730469 C 207.273438 121.730469 200.289062 126.25 190.449219 132.617188 C 189.558594 133.191406 189.304688 134.378906 189.878906 135.265625 C 190.453125 136.152344 191.640625 136.410156 192.53125 135.835938 Z M 192.53125 135.835938 " fill-opacity="1" fill-rule="evenodd"/></g><path fill="#063a80" d="M 132.144531 148.117188 L 132.144531 133.644531 C 132.144531 132.59375 131.285156 131.738281 130.234375 131.738281 L 114.273438 131.738281 C 113.214844 131.738281 112.363281 132.59375 112.363281 133.644531 L 112.363281 159.113281 C 112.363281 160.167969 113.214844 161.023438 114.273438 161.023438 C 115.328125 161.023438 116.183594 160.167969 116.183594 159.113281 L 116.183594 135.554688 C 116.183594 135.554688 128.324219 135.554688 128.324219 135.554688 L 128.324219 148.117188 C 128.324219 149.167969 129.179688 150.023438 130.234375 150.023438 C 131.285156 150.023438 132.144531 149.167969 132.144531 148.117188 Z M 132.144531 148.117188 " fill-opacity="1" fill-rule="evenodd"/><g fill="#063a80" fill-opacity="1"><g transform="translate(136.104232, 222.691887)"><g><path d="M 24.4375 -5.796875 L 24.4375 0 L 1.296875 0 L 1.296875 -4.578125 L 14.328125 -20.046875 L 1.625 -20.046875 L 1.625 -25.84375 L 23.890625 -25.84375 L 23.890625 -21.265625 L 10.859375 -5.796875 Z M 24.4375 -5.796875 "/></g></g></g><g fill="#063a80" fill-opacity="1"><g transform="translate(161.170749, 222.691887)"><g><path d="M 23.328125 -5.65625 L 23.328125 0 L 2.578125 0 L 2.578125 -25.84375 L 22.859375 -25.84375 L 22.859375 -20.203125 L 9.828125 -20.203125 L 9.828125 -15.84375 L 21.296875 -15.84375 L 21.296875 -10.375 L 9.828125 -10.375 L 9.828125 -5.65625 Z M 23.328125 -5.65625 "/></g></g></g><g fill="#063a80" fill-opacity="1"><g transform="translate(185.978854, 222.691887)"><g><path d="M 14.515625 0.515625 C 10.671875 0.515625 7.679688 -0.53125 5.546875 -2.625 C 3.421875 -4.71875 2.359375 -7.679688 2.359375 -11.515625 L 2.359375 -25.84375 L 9.671875 -25.84375 L 9.671875 -11.734375 C 9.671875 -7.597656 11.304688 -5.53125 14.578125 -5.53125 C 17.828125 -5.53125 19.453125 -7.597656 19.453125 -11.734375 L 19.453125 -25.84375 L 26.65625 -25.84375 L 26.65625 -11.515625 C 26.65625 -7.679688 25.585938 -4.71875 23.453125 -2.625 C 21.328125 -0.53125 18.347656 0.515625 14.515625 0.515625 Z M 14.515625 0.515625 "/></g></g></g><g fill="#063a80" fill-opacity="1"><g transform="translate(214.995474, 222.691887)"><g><path d="M 11.671875 0.515625 C 9.578125 0.515625 7.546875 0.257812 5.578125 -0.25 C 3.609375 -0.769531 2.007812 -1.460938 0.78125 -2.328125 L 3.171875 -7.71875 C 4.328125 -6.957031 5.664062 -6.34375 7.1875 -5.875 C 8.71875 -5.40625 10.222656 -5.171875 11.703125 -5.171875 C 14.503906 -5.171875 15.90625 -5.875 15.90625 -7.28125 C 15.90625 -8.007812 15.503906 -8.550781 14.703125 -8.90625 C 13.910156 -9.269531 12.628906 -9.648438 10.859375 -10.046875 C 8.910156 -10.460938 7.285156 -10.910156 5.984375 -11.390625 C 4.679688 -11.867188 3.5625 -12.632812 2.625 -13.6875 C 1.6875 -14.75 1.21875 -16.179688 1.21875 -17.984375 C 1.21875 -19.554688 1.644531 -20.972656 2.5 -22.234375 C 3.363281 -23.503906 4.648438 -24.507812 6.359375 -25.25 C 8.078125 -25.988281 10.179688 -26.359375 12.671875 -26.359375 C 14.367188 -26.359375 16.039062 -26.164062 17.6875 -25.78125 C 19.332031 -25.40625 20.785156 -24.847656 22.046875 -24.109375 L 19.796875 -18.6875 C 17.328125 -20.007812 14.9375 -20.671875 12.625 -20.671875 C 11.175781 -20.671875 10.117188 -20.457031 9.453125 -20.03125 C 8.785156 -19.601562 8.453125 -19.039062 8.453125 -18.34375 C 8.453125 -17.65625 8.84375 -17.140625 9.625 -16.796875 C 10.414062 -16.453125 11.6875 -16.097656 13.4375 -15.734375 C 15.40625 -15.304688 17.035156 -14.851562 18.328125 -14.375 C 19.617188 -13.894531 20.738281 -13.128906 21.6875 -12.078125 C 22.632812 -11.035156 23.109375 -9.617188 23.109375 -7.828125 C 23.109375 -6.273438 22.675781 -4.867188 21.8125 -3.609375 C 20.957031 -2.359375 19.664062 -1.359375 17.9375 -0.609375 C 16.21875 0.140625 14.128906 0.515625 11.671875 0.515625 Z M 11.671875 0.515625 "/></g></g></g><g fill="#063a80" fill-opacity="1"><g transform="translate(104.34423, 249.782252)"><g><path d="M 12.90625 -12.921875 L 12.90625 0 L 11.546875 0 L 11.546875 -5.953125 L 3.46875 -5.953125 L 3.46875 0 L 2.109375 0 L 2.109375 -12.921875 L 3.46875 -12.921875 L 3.46875 -7.15625 L 11.546875 -7.15625 L 11.546875 -12.921875 Z M 12.90625 -12.921875 "/></g></g></g><g fill="#063a80" fill-opacity="1"><g transform="translate(128.298165, 249.782252)"><g><path d="M 7.75 0.109375 C 6.46875 0.109375 5.304688 -0.175781 4.265625 -0.75 C 3.234375 -1.320312 2.421875 -2.101562 1.828125 -3.09375 C 1.242188 -4.09375 0.953125 -5.210938 0.953125 -6.453125 C 0.953125 -7.703125 1.242188 -8.820312 1.828125 -9.8125 C 2.421875 -10.8125 3.234375 -11.597656 4.265625 -12.171875 C 5.304688 -12.742188 6.46875 -13.03125 7.75 -13.03125 C 9.03125 -13.03125 10.179688 -12.742188 11.203125 -12.171875 C 12.234375 -11.609375 13.039062 -10.828125 13.625 -9.828125 C 14.21875 -8.828125 14.515625 -7.703125 14.515625 -6.453125 C 14.515625 -5.210938 14.21875 -4.09375 13.625 -3.09375 C 13.039062 -2.09375 12.234375 -1.304688 11.203125 -0.734375 C 10.179688 -0.171875 9.03125 0.109375 7.75 0.109375 Z M 7.75 -1.109375 C 8.769531 -1.109375 9.691406 -1.335938 10.515625 -1.796875 C 11.335938 -2.253906 11.984375 -2.894531 12.453125 -3.71875 C 12.921875 -4.539062 13.15625 -5.453125 13.15625 -6.453125 C 13.15625 -7.460938 12.921875 -8.375 12.453125 -9.1875 C 11.984375 -10.007812 11.335938 -10.648438 10.515625 -11.109375 C 9.691406 -11.578125 8.769531 -11.8125 7.75 -11.8125 C 6.726562 -11.8125 5.800781 -11.578125 4.96875 -11.109375 C 4.144531 -10.648438 3.492188 -10.007812 3.015625 -9.1875 C 2.546875 -8.375 2.3125 -7.460938 2.3125 -6.453125 C 2.3125 -5.453125 2.546875 -4.539062 3.015625 -3.71875 C 3.492188 -2.894531 4.144531 -2.253906 4.96875 -1.796875 C 5.800781 -1.335938 6.726562 -1.109375 7.75 -1.109375 Z M 7.75 -1.109375 "/></g></g></g><g fill="#063a80" fill-opacity="1"><g transform="translate(152.731816, 249.782252)"><g><path d="M 7.3125 0.109375 C 5.632812 0.109375 4.328125 -0.367188 3.390625 -1.328125 C 2.460938 -2.285156 2 -3.679688 2 -5.515625 L 2 -12.921875 L 3.359375 -12.921875 L 3.359375 -5.578125 C 3.359375 -4.078125 3.695312 -2.957031 4.375 -2.21875 C 5.050781 -1.476562 6.03125 -1.109375 7.3125 -1.109375 C 8.601562 -1.109375 9.585938 -1.476562 10.265625 -2.21875 C 10.941406 -2.957031 11.28125 -4.078125 11.28125 -5.578125 L 11.28125 -12.921875 L 12.609375 -12.921875 L 12.609375 -5.515625 C 12.609375 -3.679688 12.140625 -2.285156 11.203125 -1.328125 C 10.273438 -0.367188 8.976562 0.109375 7.3125 0.109375 Z M 7.3125 0.109375 "/></g></g></g><g fill="#063a80" fill-opacity="1"><g transform="translate(176.298289, 249.782252)"><g><path d="M 5.671875 0.109375 C 4.703125 0.109375 3.78125 -0.0390625 2.90625 -0.34375 C 2.03125 -0.65625 1.351562 -1.0625 0.875 -1.5625 L 1.40625 -2.625 C 1.875 -2.15625 2.492188 -1.773438 3.265625 -1.484375 C 4.035156 -1.191406 4.835938 -1.046875 5.671875 -1.046875 C 6.828125 -1.046875 7.691406 -1.257812 8.265625 -1.6875 C 8.847656 -2.113281 9.140625 -2.664062 9.140625 -3.34375 C 9.140625 -3.851562 8.976562 -4.257812 8.65625 -4.5625 C 8.34375 -4.875 7.957031 -5.113281 7.5 -5.28125 C 7.050781 -5.445312 6.421875 -5.628906 5.609375 -5.828125 C 4.640625 -6.078125 3.863281 -6.316406 3.28125 -6.546875 C 2.707031 -6.773438 2.210938 -7.117188 1.796875 -7.578125 C 1.390625 -8.046875 1.1875 -8.679688 1.1875 -9.484375 C 1.1875 -10.140625 1.359375 -10.734375 1.703125 -11.265625 C 2.046875 -11.796875 2.570312 -12.222656 3.28125 -12.546875 C 4 -12.867188 4.882812 -13.03125 5.9375 -13.03125 C 6.675781 -13.03125 7.398438 -12.925781 8.109375 -12.71875 C 8.816406 -12.519531 9.429688 -12.242188 9.953125 -11.890625 L 9.484375 -10.796875 C 8.941406 -11.148438 8.363281 -11.414062 7.75 -11.59375 C 7.132812 -11.769531 6.53125 -11.859375 5.9375 -11.859375 C 4.8125 -11.859375 3.960938 -11.640625 3.390625 -11.203125 C 2.816406 -10.773438 2.53125 -10.210938 2.53125 -9.515625 C 2.53125 -9.003906 2.6875 -8.59375 3 -8.28125 C 3.3125 -7.96875 3.703125 -7.726562 4.171875 -7.5625 C 4.648438 -7.394531 5.289062 -7.210938 6.09375 -7.015625 C 7.039062 -6.773438 7.804688 -6.539062 8.390625 -6.3125 C 8.972656 -6.09375 9.46875 -5.75 9.875 -5.28125 C 10.28125 -4.820312 10.484375 -4.195312 10.484375 -3.40625 C 10.484375 -2.757812 10.304688 -2.164062 9.953125 -1.625 C 9.597656 -1.09375 9.054688 -0.671875 8.328125 -0.359375 C 7.609375 -0.046875 6.722656 0.109375 5.671875 0.109375 Z M 5.671875 0.109375 "/></g></g></g><g fill="#063a80" fill-opacity="1"><g transform="translate(196.598994, 249.782252)"><g><path d="M 2.109375 -12.921875 L 3.46875 -12.921875 L 3.46875 0 L 2.109375 0 Z M 2.109375 -12.921875 "/></g></g></g><g fill="#063a80" fill-opacity="1"><g transform="translate(211.124651, 249.782252)"><g><path d="M 12.90625 -12.921875 L 12.90625 0 L 11.765625 0 L 3.46875 -10.484375 L 3.46875 0 L 2.109375 0 L 2.109375 -12.921875 L 3.234375 -12.921875 L 11.546875 -2.4375 L 11.546875 -12.921875 Z M 12.90625 -12.921875 "/></g></g></g><g fill="#063a80" fill-opacity="1"><g transform="translate(235.07859, 249.782252)"><g><path d="M 11.203125 -6.453125 L 12.515625 -6.453125 L 12.515625 -1.53125 C 11.910156 -1 11.195312 -0.59375 10.375 -0.3125 C 9.550781 -0.03125 8.679688 0.109375 7.765625 0.109375 C 6.472656 0.109375 5.3125 -0.171875 4.28125 -0.734375 C 3.25 -1.304688 2.4375 -2.09375 1.84375 -3.09375 C 1.25 -4.09375 0.953125 -5.210938 0.953125 -6.453125 C 0.953125 -7.703125 1.25 -8.828125 1.84375 -9.828125 C 2.4375 -10.828125 3.25 -11.609375 4.28125 -12.171875 C 5.3125 -12.742188 6.476562 -13.03125 7.78125 -13.03125 C 8.769531 -13.03125 9.675781 -12.875 10.5 -12.5625 C 11.320312 -12.25 12.015625 -11.785156 12.578125 -11.171875 L 11.734375 -10.296875 C 10.710938 -11.304688 9.414062 -11.8125 7.84375 -11.8125 C 6.800781 -11.8125 5.859375 -11.578125 5.015625 -11.109375 C 4.171875 -10.648438 3.507812 -10.007812 3.03125 -9.1875 C 2.550781 -8.375 2.3125 -7.460938 2.3125 -6.453125 C 2.3125 -5.453125 2.550781 -4.546875 3.03125 -3.734375 C 3.507812 -2.921875 4.164062 -2.28125 5 -1.8125 C 5.832031 -1.34375 6.773438 -1.109375 7.828125 -1.109375 C 9.148438 -1.109375 10.273438 -1.441406 11.203125 -2.109375 Z M 11.203125 -6.453125 "/></g></g></g><g fill="#063a80" fill-opacity="1"><g transform="translate(258.294486, 249.782252)"><g><path d="M 11.34375 0.203125 L 9.5625 -1.640625 C 8.46875 -0.472656 7.023438 0.109375 5.234375 0.109375 C 4.398438 0.109375 3.65625 -0.0234375 3 -0.296875 C 2.34375 -0.578125 1.828125 -0.96875 1.453125 -1.46875 C 1.085938 -1.96875 0.90625 -2.535156 0.90625 -3.171875 C 0.90625 -3.953125 1.148438 -4.648438 1.640625 -5.265625 C 2.128906 -5.878906 2.96875 -6.523438 4.15625 -7.203125 C 3.539062 -7.835938 3.113281 -8.378906 2.875 -8.828125 C 2.644531 -9.273438 2.53125 -9.753906 2.53125 -10.265625 C 2.53125 -11.085938 2.820312 -11.75 3.40625 -12.25 C 4 -12.757812 4.796875 -13.015625 5.796875 -13.015625 C 6.710938 -13.015625 7.441406 -12.785156 7.984375 -12.328125 C 8.523438 -11.867188 8.796875 -11.238281 8.796875 -10.4375 C 8.796875 -9.800781 8.582031 -9.226562 8.15625 -8.71875 C 7.726562 -8.207031 6.984375 -7.644531 5.921875 -7.03125 L 9.46875 -3.375 C 9.863281 -4.070312 10.148438 -4.90625 10.328125 -5.875 L 11.40625 -5.53125 C 11.164062 -4.375 10.785156 -3.382812 10.265625 -2.5625 L 12.109375 -0.671875 Z M 5.796875 -12.03125 C 5.148438 -12.03125 4.644531 -11.867188 4.28125 -11.546875 C 3.925781 -11.234375 3.75 -10.8125 3.75 -10.28125 C 3.75 -9.894531 3.847656 -9.53125 4.046875 -9.1875 C 4.242188 -8.84375 4.628906 -8.375 5.203125 -7.78125 C 6.140625 -8.320312 6.785156 -8.785156 7.140625 -9.171875 C 7.492188 -9.554688 7.671875 -9.972656 7.671875 -10.421875 C 7.671875 -10.921875 7.503906 -11.3125 7.171875 -11.59375 C 6.847656 -11.882812 6.390625 -12.03125 5.796875 -12.03125 Z M 5.3125 -0.984375 C 6.738281 -0.984375 7.894531 -1.46875 8.78125 -2.4375 L 4.890625 -6.4375 C 3.867188 -5.863281 3.164062 -5.34375 2.78125 -4.875 C 2.394531 -4.40625 2.203125 -3.878906 2.203125 -3.296875 C 2.203125 -2.597656 2.484375 -2.035156 3.046875 -1.609375 C 3.617188 -1.191406 4.375 -0.984375 5.3125 -0.984375 Z M 5.3125 -0.984375 "/></g></g></g><g fill="#063a80" fill-opacity="1"><g transform="translate(81.922237, 275.495689)"><g><path d="M 10.203125 -3.453125 L 3.015625 -3.453125 L 1.453125 0 L 0.03125 0 L 5.9375 -12.921875 L 7.28125 -12.921875 L 13.1875 0 L 11.75 0 Z M 9.703125 -4.5625 L 6.609375 -11.5 L 3.5 -4.5625 Z M 9.703125 -4.5625 "/></g></g></g><g fill="#063a80" fill-opacity="1"><g transform="translate(104.104912, 275.495689)"><g><path d="M 6.9375 -12.921875 C 8.582031 -12.921875 9.875 -12.523438 10.8125 -11.734375 C 11.75 -10.953125 12.21875 -9.867188 12.21875 -8.484375 C 12.21875 -7.109375 11.75 -6.03125 10.8125 -5.25 C 9.875 -4.46875 8.582031 -4.078125 6.9375 -4.078125 L 3.46875 -4.078125 L 3.46875 0 L 2.109375 0 L 2.109375 -12.921875 Z M 6.90625 -5.28125 C 8.1875 -5.28125 9.160156 -5.554688 9.828125 -6.109375 C 10.503906 -6.671875 10.84375 -7.460938 10.84375 -8.484375 C 10.84375 -9.535156 10.503906 -10.335938 9.828125 -10.890625 C 9.160156 -11.453125 8.1875 -11.734375 6.90625 -11.734375 L 3.46875 -11.734375 L 3.46875 -5.28125 Z M 6.90625 -5.28125 "/></g></g></g><g fill="#063a80" fill-opacity="1"><g transform="translate(126.306028, 275.495689)"><g><path d="M 10.203125 -3.453125 L 3.015625 -3.453125 L 1.453125 0 L 0.03125 0 L 5.9375 -12.921875 L 7.28125 -12.921875 L 13.1875 0 L 11.75 0 Z M 9.703125 -4.5625 L 6.609375 -11.5 L 3.5 -4.5625 Z M 9.703125 -4.5625 "/></g></g></g><g fill="#063a80" fill-opacity="1"><g transform="translate(148.488706, 275.495689)"><g><path d="M 10.921875 0 L 7.96875 -4.15625 C 7.632812 -4.113281 7.289062 -4.09375 6.9375 -4.09375 L 3.46875 -4.09375 L 3.46875 0 L 2.109375 0 L 2.109375 -12.921875 L 6.9375 -12.921875 C 8.582031 -12.921875 9.875 -12.523438 10.8125 -11.734375 C 11.75 -10.953125 12.21875 -9.867188 12.21875 -8.484375 C 12.21875 -7.472656 11.960938 -6.617188 11.453125 -5.921875 C 10.941406 -5.234375 10.210938 -4.734375 9.265625 -4.421875 L 12.421875 0 Z M 6.90625 -5.265625 C 8.1875 -5.265625 9.160156 -5.546875 9.828125 -6.109375 C 10.503906 -6.671875 10.84375 -7.460938 10.84375 -8.484375 C 10.84375 -9.535156 10.503906 -10.335938 9.828125 -10.890625 C 9.160156 -11.453125 8.1875 -11.734375 6.90625 -11.734375 L 3.46875 -11.734375 L 3.46875 -5.265625 Z M 6.90625 -5.265625 "/></g></g></g><g fill="#063a80" fill-opacity="1"><g transform="translate(170.782066, 275.495689)"><g><path d="M 4.609375 -11.734375 L 0.078125 -11.734375 L 0.078125 -12.921875 L 10.515625 -12.921875 L 10.515625 -11.734375 L 5.984375 -11.734375 L 5.984375 0 L 4.609375 0 Z M 4.609375 -11.734375 "/></g></g></g><g fill="#063a80" fill-opacity="1"><g transform="translate(190.326294, 275.495689)"><g><path d="M 15.515625 -12.921875 L 15.515625 0 L 14.203125 0 L 14.203125 -10.328125 L 9.140625 -1.640625 L 8.484375 -1.640625 L 3.40625 -10.28125 L 3.40625 0 L 2.109375 0 L 2.109375 -12.921875 L 3.234375 -12.921875 L 8.84375 -3.34375 L 14.390625 -12.921875 Z M 15.515625 -12.921875 "/></g></g></g><g fill="#063a80" fill-opacity="1"><g transform="translate(216.900212, 275.495689)"><g><path d="M 11.234375 -1.1875 L 11.234375 0 L 2.109375 0 L 2.109375 -12.921875 L 10.96875 -12.921875 L 10.96875 -11.734375 L 3.46875 -11.734375 L 3.46875 -7.140625 L 10.15625 -7.140625 L 10.15625 -5.984375 L 3.46875 -5.984375 L 3.46875 -1.1875 Z M 11.234375 -1.1875 "/></g></g></g><g fill="#063a80" fill-opacity="1"><g transform="translate(238.197245, 275.495689)"><g><path d="M 12.90625 -12.921875 L 12.90625 0 L 11.765625 0 L 3.46875 -10.484375 L 3.46875 0 L 2.109375 0 L 2.109375 -12.921875 L 3.234375 -12.921875 L 11.546875 -2.4375 L 11.546875 -12.921875 Z M 12.90625 -12.921875 "/></g></g></g><g fill="#063a80" fill-opacity="1"><g transform="translate(262.151177, 275.495689)"><g><path d="M 4.609375 -11.734375 L 0.078125 -11.734375 L 0.078125 -12.921875 L 10.515625 -12.921875 L 10.515625 -11.734375 L 5.984375 -11.734375 L 5.984375 0 L 4.609375 0 Z M 4.609375 -11.734375 "/></g></g></g><g fill="#063a80" fill-opacity="1"><g transform="translate(281.695405, 275.495689)"><g><path d="M 5.671875 0.109375 C 4.703125 0.109375 3.78125 -0.0390625 2.90625 -0.34375 C 2.03125 -0.65625 1.351562 -1.0625 0.875 -1.5625 L 1.40625 -2.625 C 1.875 -2.15625 2.492188 -1.773438 3.265625 -1.484375 C 4.035156 -1.191406 4.835938 -1.046875 5.671875 -1.046875 C 6.828125 -1.046875 7.691406 -1.257812 8.265625 -1.6875 C 8.847656 -2.113281 9.140625 -2.664062 9.140625 -3.34375 C 9.140625 -3.851562 8.976562 -4.257812 8.65625 -4.5625 C 8.34375 -4.875 7.957031 -5.113281 7.5 -5.28125 C 7.050781 -5.445312 6.421875 -5.628906 5.609375 -5.828125 C 4.640625 -6.078125 3.863281 -6.316406 3.28125 -6.546875 C 2.707031 -6.773438 2.210938 -7.117188 1.796875 -7.578125 C 1.390625 -8.046875 1.1875 -8.679688 1.1875 -9.484375 C 1.1875 -10.140625 1.359375 -10.734375 1.703125 -11.265625 C 2.046875 -11.796875 2.570312 -12.222656 3.28125 -12.546875 C 4 -12.867188 4.882812 -13.03125 5.9375 -13.03125 C 6.675781 -13.03125 7.398438 -12.925781 8.109375 -12.71875 C 8.816406 -12.519531 9.429688 -12.242188 9.953125 -11.890625 L 9.484375 -10.796875 C 8.941406 -11.148438 8.363281 -11.414062 7.75 -11.59375 C 7.132812 -11.769531 6.53125 -11.859375 5.9375 -11.859375 C 4.8125 -11.859375 3.960938 -11.640625 3.390625 -11.203125 C 2.816406 -10.773438 2.53125 -10.210938 2.53125 -9.515625 C 2.53125 -9.003906 2.6875 -8.59375 3 -8.28125 C 3.3125 -7.96875 3.703125 -7.726562 4.171875 -7.5625 C 4.648438 -7.394531 5.289062 -7.210938 6.09375 -7.015625 C 7.039062 -6.773438 7.804688 -6.539062 8.390625 -6.3125 C 8.972656 -6.09375 9.46875 -5.75 9.875 -5.28125 C 10.28125 -4.820312 10.484375 -4.195312 10.484375 -3.40625 C 10.484375 -2.757812 10.304688 -2.164062 9.953125 -1.625 C 9.597656 -1.09375 9.054688 -0.671875 8.328125 -0.359375 C 7.609375 -0.046875 6.722656 0.109375 5.671875 0.109375 Z M 5.671875 0.109375 "/></g></g></g></svg>